<svg width="24" height="24" viewBox="0 0 24 24" fill="none" xmlns="http://www.w3.org/2000/svg">
<path d="M2.62639 21.3394H4.46486L15.7912 10.0131L13.9527 8.17464L2.62639 19.5009V21.3394ZM21.4051 8.10898L15.824 2.59356L17.6625 0.755087C18.1659 0.251696 18.7844 0 19.518 0C20.2508 0 20.8689 0.251696 21.3722 0.755087L23.2107 2.59356C23.7141 3.09695 23.9767 3.70452 23.9986 4.41627C24.0205 5.12715 23.7798 5.73428 23.2764 6.23768L21.4051 8.10898ZM1.31319 23.9658C0.941123 23.9658 0.629458 23.8397 0.3782 23.5876C0.126067 23.3363 0 23.0247 0 22.6526V18.9428C0 18.7677 0.0328299 18.5983 0.0984897 18.4346C0.164149 18.27 0.262639 18.1221 0.393958 17.9908L13.9199 4.46486L19.5009 10.0459L5.97504 23.5718C5.84372 23.7032 5.6962 23.8017 5.53249 23.8673C5.3679 23.933 5.19806 23.9658 5.02297 23.9658H1.31319ZM14.8719 9.09387L13.9527 8.17464L15.7912 10.0131L14.8719 9.09387Z" fill="#554A48"/>
</svg>
