<svg width="97" height="37" viewBox="0 0 97 37" fill="none" xmlns="http://www.w3.org/2000/svg">
<path d="M22.9004 17.1719H20.3691V27.4902C20.3691 29.084 20.0996 30.4727 19.5605 31.6562C19.0215 32.8516 18.2656 33.8418 17.293 34.627C16.332 35.4238 15.1895 36.0156 13.8652 36.4023C12.541 36.8008 11.0996 37 9.54102 37C8.94336 37 8.36914 36.9473 7.81836 36.8418C7.26758 36.748 6.78125 36.6133 6.35938 36.4375C5.9375 36.2617 5.59766 36.0508 5.33984 35.8047C5.09375 35.5703 4.9707 35.3066 4.9707 35.0137C4.9707 34.8027 5 34.5859 5.05859 34.3633C5.11719 34.1523 5.20508 33.959 5.32227 33.7832C5.43945 33.6074 5.58008 33.4609 5.74414 33.3438C5.91992 33.2383 6.11328 33.1855 6.32422 33.1855C6.46484 33.1855 6.58203 33.25 6.67578 33.3789C6.76953 33.5078 6.86914 33.666 6.97461 33.8535C7.08008 34.041 7.20312 34.2461 7.34375 34.4688C7.48438 34.7031 7.66016 34.9141 7.87109 35.1016C8.08203 35.2891 8.33984 35.4473 8.64453 35.5762C8.94922 35.7051 9.33008 35.7695 9.78711 35.7695C10.6895 35.7695 11.4863 35.6055 12.1777 35.2773C12.8691 34.9492 13.4434 34.4863 13.9004 33.8887C14.3691 33.3027 14.7207 32.5938 14.9551 31.7617C15.2012 30.9414 15.3242 30.0332 15.3242 29.0371V27.9648C14.832 28.0703 14.334 28.1465 13.8301 28.1934C13.3379 28.252 12.7812 28.2812 12.1602 28.2812C10.5664 28.2812 9.07227 28.041 7.67773 27.5605C6.2832 27.0684 5.06445 26.3125 4.02148 25.293C2.99023 24.2734 2.17578 22.9727 1.57812 21.3906C0.980469 19.8086 0.681641 17.9219 0.681641 15.7305C0.681641 14.207 0.845703 12.8008 1.17383 11.5117C1.50195 10.2227 1.95898 9.0625 2.54492 8.03125C3.13086 6.98828 3.82227 6.07422 4.61914 5.28906C5.42773 4.50391 6.30078 3.84766 7.23828 3.32031C8.1875 2.79297 9.18359 2.39453 10.2266 2.125C11.2812 1.85547 12.3477 1.7207 13.4258 1.7207C14.4453 1.7207 15.3945 1.82031 16.2734 2.01953C17.1523 2.20703 17.9141 2.48828 18.5586 2.86328C19.2148 3.22656 19.7305 3.68359 20.1055 4.23438C20.4805 4.77344 20.668 5.38867 20.668 6.08008C20.668 6.39648 20.6094 6.73047 20.4922 7.08203C20.3867 7.42187 20.2285 7.73828 20.0176 8.03125C19.8066 8.3125 19.5371 8.54687 19.209 8.73438C18.8926 8.91016 18.5234 8.99805 18.1016 8.99805C17.5977 8.99805 17.2227 8.85742 16.9766 8.57617C16.7422 8.2832 16.5605 7.92578 16.4316 7.50391C16.3145 7.08203 16.2266 6.61914 16.168 6.11523C16.1094 5.61133 16.0098 5.14844 15.8691 4.72656C15.7285 4.30469 15.5117 3.95312 15.2188 3.67188C14.9375 3.37891 14.5215 3.23242 13.9707 3.23242C13.5605 3.23242 13.0977 3.33203 12.582 3.53125C12.0664 3.73047 11.5449 4.04687 11.0176 4.48047C10.4902 4.90234 9.96875 5.44727 9.45312 6.11523C8.94922 6.77148 8.49805 7.5625 8.09961 8.48828C7.71289 9.41406 7.39648 10.4805 7.15039 11.6875C6.91602 12.8828 6.79883 14.2305 6.79883 15.7305C6.79883 17.3945 6.9043 18.8184 7.11523 20.002C7.32617 21.1738 7.60156 22.1582 7.94141 22.9551C8.29297 23.7402 8.69141 24.3672 9.13672 24.8359C9.59375 25.293 10.0625 25.6387 10.543 25.873C11.0234 26.1074 11.498 26.2598 11.9668 26.3301C12.4473 26.3887 12.8867 26.418 13.2852 26.418C13.6953 26.418 14.0703 26.3887 14.4102 26.3301C14.75 26.2598 15.0547 26.166 15.3242 26.0488V17.1719H12.2305V15.6074H22.9004V17.1719ZM31.0566 26.418C31.0566 26.5703 31.0273 26.7578 30.9688 26.9805C30.9219 27.1914 30.7988 27.3965 30.5996 27.5957C30.4121 27.7832 30.1367 27.9414 29.7734 28.0703C29.4102 28.2109 28.918 28.2812 28.2969 28.2812C27.6758 28.2812 27.1895 28.2051 26.8379 28.0527C26.4863 27.9121 26.2227 27.7422 26.0469 27.543C25.8711 27.3438 25.7598 27.1387 25.7129 26.9277C25.6777 26.7168 25.6602 26.5469 25.6602 26.418V12.8477C25.6602 12.5078 25.5781 12.2148 25.4141 11.9688C25.2617 11.7109 24.998 11.582 24.623 11.582C24.4238 11.582 24.2539 11.6172 24.1133 11.6875C23.9727 11.7578 23.8203 11.8574 23.6562 11.9863L23.2871 11.5469C23.5566 11.3242 23.8555 11.1074 24.1836 10.8965C24.5234 10.6738 24.8867 10.4805 25.2734 10.3164C25.6602 10.1523 26.0762 10.0176 26.5215 9.91211C26.9668 9.80664 27.4355 9.75391 27.9277 9.75391C28.6895 9.75391 29.2812 9.85938 29.7031 10.0703C30.125 10.2695 30.4355 10.5215 30.6348 10.8262C30.834 11.1191 30.9512 11.4355 30.9863 11.7754C31.0332 12.1152 31.0566 12.4141 31.0566 12.6719V26.418ZM25.1152 5.74609C25.1152 5.41797 25.1855 5.10742 25.3262 4.81445C25.4785 4.50977 25.6836 4.24609 25.9414 4.02344C26.2109 3.80078 26.5156 3.625 26.8555 3.49609C27.207 3.36719 27.5879 3.30273 27.998 3.30273C28.3965 3.30273 28.7656 3.36719 29.1055 3.49609C29.457 3.625 29.7617 3.80078 30.0195 4.02344C30.2773 4.24609 30.4766 4.50977 30.6172 4.81445C30.7695 5.10742 30.8457 5.41797 30.8457 5.74609C30.8457 6.08594 30.7695 6.40234 30.6172 6.69531C30.4766 6.98828 30.2773 7.24609 30.0195 7.46875C29.7617 7.67969 29.457 7.84961 29.1055 7.97852C28.7656 8.10742 28.3965 8.17188 27.998 8.17188C27.5879 8.17188 27.207 8.10742 26.8555 7.97852C26.5156 7.84961 26.2109 7.67969 25.9414 7.46875C25.6836 7.24609 25.4785 6.98828 25.3262 6.69531C25.1855 6.40234 25.1152 6.08594 25.1152 5.74609ZM44.1699 1.86133C43.8418 1.86133 43.5312 1.93164 43.2383 2.07227C42.9453 2.21289 42.6875 2.44141 42.4648 2.75781C42.2539 3.0625 42.084 3.45508 41.9551 3.93555C41.8262 4.41602 41.7617 4.99609 41.7617 5.67578V10H45.6113V11.2656H41.7617V25.1172C41.7617 26.7109 41.5508 28.1816 41.1289 29.5293C40.7188 30.877 40.0918 32.0371 39.248 33.0098C38.4043 33.9941 37.3496 34.7617 36.084 35.3125C34.8184 35.8633 33.3418 36.1387 31.6543 36.1387C31.0566 36.1387 30.4824 36.0859 29.9316 35.9805C29.3809 35.8867 28.8945 35.752 28.4727 35.5762C28.0508 35.4004 27.7168 35.1895 27.4707 34.9434C27.2129 34.709 27.084 34.4453 27.084 34.1523C27.084 33.9414 27.1133 33.7246 27.1719 33.502C27.2305 33.291 27.3184 33.0977 27.4355 32.9219C27.5527 32.7461 27.6992 32.5996 27.875 32.4824C28.0391 32.377 28.2324 32.3242 28.4551 32.3242C28.584 32.3242 28.7012 32.3887 28.8066 32.5176C28.9004 32.6465 29 32.8047 29.1055 32.9922C29.2109 33.1797 29.334 33.3848 29.4746 33.6074C29.6035 33.8418 29.7734 34.0527 29.9844 34.2402C30.1953 34.4277 30.459 34.5859 30.7754 34.7148C31.0801 34.8438 31.4551 34.9082 31.9004 34.9082C32.498 34.9082 33.0254 34.7852 33.4824 34.5391C33.9395 34.3047 34.332 33.9766 34.6602 33.5547C34.9883 33.1328 35.2637 32.6348 35.4863 32.0605C35.709 31.4863 35.8848 30.8711 36.0137 30.2148C36.1426 29.5586 36.2305 28.873 36.2773 28.1582C36.3359 27.4434 36.3652 26.7285 36.3652 26.0137V11.2656H33.1309V10H36.3652V7.94336C36.3652 6.91211 36.4883 6.01562 36.7344 5.25391C36.9922 4.48047 37.3262 3.82422 37.7363 3.28516C38.1582 2.74609 38.6328 2.30664 39.1602 1.9668C39.6875 1.62695 40.2207 1.35742 40.7598 1.1582C41.3105 0.958984 41.8438 0.824219 42.3594 0.753906C42.875 0.683594 43.3262 0.648438 43.7129 0.648438C44.5449 0.648438 45.2832 0.712891 45.9277 0.841797C46.5723 0.958984 47.1113 1.12305 47.5449 1.33398C47.9785 1.5332 48.3066 1.76758 48.5293 2.03711C48.752 2.30664 48.8633 2.58203 48.8633 2.86328C48.8633 3.07422 48.8281 3.29102 48.7578 3.51367C48.6992 3.72461 48.6113 3.92383 48.4941 4.11133C48.377 4.28711 48.2305 4.43359 48.0547 4.55078C47.8906 4.65625 47.7031 4.70898 47.4922 4.70898C47.3633 4.70898 47.2461 4.63867 47.1406 4.49805C47.0352 4.35742 46.9238 4.18164 46.8066 3.9707C46.6895 3.75977 46.5605 3.53125 46.4199 3.28516C46.2793 3.03906 46.1035 2.81055 45.8926 2.59961C45.6934 2.38867 45.4531 2.21289 45.1719 2.07227C44.8906 1.93164 44.5566 1.86133 44.1699 1.86133ZM52.9062 11.2656V24.2559C52.9062 24.877 53.0234 25.3105 53.2578 25.5566C53.4922 25.791 53.8145 25.9082 54.2246 25.9082C54.541 25.9082 54.8223 25.8203 55.0684 25.6445C55.3145 25.4688 55.5254 25.2695 55.7012 25.0469C55.9121 24.8008 56.0938 24.5137 56.2461 24.1855L56.791 24.4316C56.6152 24.8066 56.4043 25.2168 56.1582 25.6621C55.9238 26.1074 55.6074 26.5234 55.209 26.9102C54.8105 27.2852 54.3066 27.6016 53.6973 27.8594C53.0996 28.1172 52.3438 28.2461 51.4297 28.2461C50.9141 28.2461 50.416 28.1699 49.9355 28.0176C49.4668 27.8652 49.0449 27.625 48.6699 27.2969C48.3066 26.9688 48.0137 26.5586 47.791 26.0664C47.5684 25.5742 47.457 24.9824 47.457 24.291V11.2656H45.4883V10C45.8164 10 46.2734 9.91797 46.8594 9.75391C47.4453 9.57812 48.043 9.29102 48.6523 8.89258C49.2734 8.49414 49.8477 7.96094 50.375 7.29297C50.9023 6.625 51.2773 5.79883 51.5 4.81445H52.9062V10H55.7715C56.709 10 57.1777 9.8418 57.1777 9.52539C57.1777 9.4082 57.1191 9.33203 57.002 9.29688C56.8848 9.25 56.75 9.19727 56.5977 9.13867C56.457 9.06836 56.3281 8.97461 56.2109 8.85742C56.0938 8.74023 56.0352 8.54687 56.0352 8.27734C56.0352 7.94922 56.1348 7.69141 56.334 7.50391C56.5449 7.31641 56.8145 7.22266 57.1426 7.22266C57.3535 7.22266 57.5352 7.26953 57.6875 7.36328C57.8516 7.44531 57.9863 7.5625 58.0918 7.71484C58.1973 7.85547 58.2734 8.01953 58.3203 8.20703C58.3789 8.39453 58.4082 8.58203 58.4082 8.76953C58.4082 9.53125 58.1855 10.1406 57.7402 10.5977C57.3066 11.043 56.6035 11.2656 55.6309 11.2656H52.9062ZM79.959 25.6973C79.959 26.5996 79.7188 27.2559 79.2383 27.666C78.7695 28.0762 78.0488 28.2812 77.0762 28.2812C76.0918 28.2812 75.3652 28.0762 74.8965 27.666C74.4277 27.2559 74.1934 26.5996 74.1934 25.6973V4.5332C74.1934 4.27539 74.1641 4.07031 74.1055 3.91797C74.0469 3.76562 73.9648 3.64844 73.8594 3.56641C73.7539 3.47266 73.625 3.41406 73.4727 3.39062C73.332 3.35547 73.1738 3.33789 72.998 3.33789C72.7402 3.33789 72.418 3.37891 72.0312 3.46094C71.6562 3.54297 71.2578 3.66602 70.8359 3.83008C70.4141 3.99414 69.9863 4.19922 69.5527 4.44531C69.1309 4.67969 68.75 4.94922 68.4102 5.25391C68.082 5.55859 67.8125 5.89844 67.6016 6.27344C67.3906 6.64844 67.2852 7.05273 67.2852 7.48633C67.2852 7.86133 67.332 8.16016 67.4258 8.38281C67.5312 8.60547 67.6484 8.77539 67.7773 8.89258C67.9062 8.99805 68.0352 9.06836 68.1641 9.10352C68.3047 9.12695 68.4043 9.13867 68.4629 9.13867C68.7559 9.13867 68.9961 9.0918 69.1836 8.99805C69.3711 8.89258 69.541 8.78711 69.6934 8.68164C69.8457 8.56445 69.9863 8.45898 70.1152 8.36523C70.2559 8.25977 70.4141 8.20703 70.5898 8.20703C70.7305 8.20703 70.877 8.24219 71.0293 8.3125C71.1934 8.37109 71.3398 8.4707 71.4688 8.61133C71.6094 8.75195 71.7266 8.93945 71.8203 9.17383C71.9141 9.39648 71.9609 9.67188 71.9609 10C71.9609 10.4688 71.8672 10.873 71.6797 11.2129C71.5039 11.5527 71.2695 11.8398 70.9766 12.0742C70.6953 12.2969 70.3672 12.4668 69.9922 12.584C69.6289 12.6895 69.2656 12.7422 68.9023 12.7422C68.3398 12.7422 67.8301 12.6484 67.373 12.4609C66.9277 12.2617 66.5469 11.9922 66.2305 11.6523C65.9141 11.3125 65.6738 10.9141 65.5098 10.457C65.3457 10 65.2637 9.51367 65.2637 8.99805C65.2637 8.18945 65.4102 7.45117 65.7031 6.7832C65.9961 6.10352 66.3945 5.49414 66.8984 4.95508C67.4141 4.41602 68.0117 3.94727 68.6914 3.54883C69.3828 3.13867 70.127 2.79883 70.9238 2.5293C71.7207 2.25977 72.5527 2.06055 73.4199 1.93164C74.2871 1.79102 75.1543 1.7207 76.0215 1.7207C76.9824 1.7207 77.7266 1.81445 78.2539 2.00195C78.793 2.17773 79.1855 2.39453 79.4316 2.65234C79.6895 2.91016 79.8418 3.17969 79.8887 3.46094C79.9355 3.74219 79.959 3.97656 79.959 4.16406V25.6973ZM90.5234 11.2656V24.2559C90.5234 24.877 90.6406 25.3105 90.875 25.5566C91.1094 25.791 91.4316 25.9082 91.8418 25.9082C92.1582 25.9082 92.4395 25.8203 92.6855 25.6445C92.9316 25.4688 93.1426 25.2695 93.3184 25.0469C93.5293 24.8008 93.7109 24.5137 93.8633 24.1855L94.4082 24.4316C94.2324 24.8066 94.0215 25.2168 93.7754 25.6621C93.541 26.1074 93.2246 26.5234 92.8262 26.9102C92.4277 27.2852 91.9238 27.6016 91.3145 27.8594C90.7168 28.1172 89.9609 28.2461 89.0469 28.2461C88.5312 28.2461 88.0332 28.1699 87.5527 28.0176C87.084 27.8652 86.6621 27.625 86.2871 27.2969C85.9238 26.9688 85.6309 26.5586 85.4082 26.0664C85.1855 25.5742 85.0742 24.9824 85.0742 24.291V11.2656H83.1055V10C83.4336 10 83.8906 9.91797 84.4766 9.75391C85.0625 9.57812 85.6602 9.29102 86.2695 8.89258C86.8906 8.49414 87.4648 7.96094 87.9922 7.29297C88.5195 6.625 88.8945 5.79883 89.1172 4.81445H90.5234V10H93.3887C94.3262 10 94.7949 9.8418 94.7949 9.52539C94.7949 9.4082 94.7363 9.33203 94.6191 9.29688C94.502 9.25 94.3672 9.19727 94.2148 9.13867C94.0742 9.06836 93.9453 8.97461 93.8281 8.85742C93.7109 8.74023 93.6523 8.54687 93.6523 8.27734C93.6523 7.94922 93.752 7.69141 93.9512 7.50391C94.1621 7.31641 94.4316 7.22266 94.7598 7.22266C94.9707 7.22266 95.1523 7.26953 95.3047 7.36328C95.4688 7.44531 95.6035 7.5625 95.709 7.71484C95.8145 7.85547 95.8906 8.01953 95.9375 8.20703C95.9961 8.39453 96.0254 8.58203 96.0254 8.76953C96.0254 9.53125 95.8027 10.1406 95.3574 10.5977C94.9238 11.043 94.2207 11.2656 93.248 11.2656H90.5234Z" fill="#EF6D24"/>
</svg>
