<svg width="24" height="24" viewBox="0 0 24 24" fill="none" xmlns="http://www.w3.org/2000/svg">
<path d="M23.04 6.14493H18.612C19.02 5.52464 19.26 4.78841 19.26 4C19.26 1.7942 17.403 0 15.12 0C13.878 0 12.759 0.533333 12 1.37391C11.241 0.533333 10.122 0 8.88 0C6.597 0 4.74 1.7942 4.74 4C4.74 4.78841 4.977 5.52464 5.388 6.14493H0.96C0.429 6.14493 0 6.55942 0 7.07246V12.8696C0 12.9971 0.108 13.1014 0.24 13.1014H1.44V23.0725C1.44 23.5855 1.869 24 2.4 24H21.6C22.131 24 22.56 23.5855 22.56 23.0725V13.1014H23.76C23.892 13.1014 24 12.9971 24 12.8696V7.07246C24 6.55942 23.571 6.14493 23.04 6.14493ZM13.02 4C13.02 2.88116 13.962 1.97101 15.12 1.97101C16.278 1.97101 17.22 2.88116 17.22 4C17.22 5.11884 16.278 6.02899 15.12 6.02899H13.02V4ZM8.88 1.97101C10.038 1.97101 10.98 2.88116 10.98 4V6.02899H8.88C7.722 6.02899 6.78 5.11884 6.78 4C6.78 2.88116 7.722 1.97101 8.88 1.97101ZM2.04 11.1304V8.11594H10.98V11.1304H2.04ZM3.48 13.1014H10.98V22.029H3.48V13.1014ZM20.52 22.029H13.02V13.1014H20.52V22.029ZM21.96 11.1304H13.02V8.11594H21.96V11.1304Z" fill="white"/>
</svg>
