<svg width="30" height="28" viewBox="0 0 30 28" fill="none" xmlns="http://www.w3.org/2000/svg">
<path d="M21.75 0C19.14 0 16.635 1.23597 15 3.1891C13.365 1.23597 10.86 0 8.25 0C3.63 0 0 3.69264 0 8.39237C0 14.1602 5.1 18.8599 12.825 26.0011L15 28L17.175 25.9858C24.9 18.8599 30 14.1602 30 8.39237C30 3.69264 26.37 0 21.75 0ZM15.15 23.7275L15 23.8801L14.85 23.7275C7.71 17.151 3 12.8022 3 8.39237C3 5.3406 5.25 3.05177 8.25 3.05177C10.56 3.05177 12.81 4.5624 13.605 6.65286H16.41C17.19 4.5624 19.44 3.05177 21.75 3.05177C24.75 3.05177 27 5.3406 27 8.39237C27 12.8022 22.29 17.151 15.15 23.7275Z" fill="#F88F42"/>
</svg>
