<svg width="26" height="26" viewBox="0 0 26 26" fill="none" xmlns="http://www.w3.org/2000/svg">
<path d="M25.15 10.58V10.457L25.0294 10.4329L21.0992 9.64687L23.3248 6.31329L23.3931 6.21095L23.3061 6.12393L19.8761 2.69393L19.7891 2.60692L19.6867 2.67525L16.3531 4.90079L15.5671 0.970583L15.543 0.85H15.42H10.58H10.457L10.4329 0.970583L9.64687 4.90079L6.31329 2.67525L6.21095 2.60692L6.12393 2.69393L2.69393 6.12393L2.60692 6.21095L2.67525 6.31329L4.90079 9.64687L0.970583 10.4329L0.85 10.457V10.58V15.42V15.543L0.970583 15.5671L4.90079 16.3531L2.67525 19.6867L2.60692 19.7891L2.69393 19.8761L6.12393 23.3061L6.21095 23.3931L6.31329 23.3248L9.64687 21.0992L10.4329 25.0294L10.457 25.15H10.58H15.42H15.543L15.5671 25.0294L16.3531 21.0992L19.6867 23.3248L19.7891 23.3931L19.8761 23.3061L23.3061 19.8761L23.3931 19.7891L23.3248 19.6867L21.0992 16.3531L25.0294 15.5671L25.15 15.543V15.42V10.58ZM19.2502 14.673L19.1721 14.6888L19.1415 14.7625L18.6015 16.0625L18.5707 16.1366L18.6152 16.2033L20.8369 19.5309L19.5809 20.7869L16.2533 18.5652L16.1866 18.5207L16.1125 18.5515L14.8125 19.0915L14.7388 19.1221L14.723 19.2002L13.9373 23.08H12.1827L11.397 19.2002L11.3812 19.1221L11.3075 19.0915L10.0075 18.5515L9.93344 18.5207L9.86671 18.5652L6.53905 20.7869L5.28308 19.5309L7.50475 16.2033L7.5493 16.1366L7.51852 16.0625L6.97852 14.7625L6.94793 14.6888L6.86977 14.673L2.99 13.8873V12.1327L6.86977 11.347L6.94793 11.3312L6.97852 11.2575L7.51852 9.95754L7.5493 9.88344L7.50475 9.81671L5.28308 6.48905L6.53905 5.23308L9.86671 7.45475L9.93344 7.4993L10.0075 7.46852L11.3075 6.92852L11.3812 6.89793L11.397 6.81977L12.1827 2.94H13.9373L14.723 6.81977L14.7388 6.89793L14.8125 6.92852L16.1125 7.46852L16.1866 7.4993L16.2533 7.45475L19.5809 5.23308L20.8369 6.48905L18.6152 9.81671L18.5707 9.88344L18.6015 9.95754L19.1415 11.2575L19.1721 11.3312L19.2502 11.347L23.13 12.1327V13.8873L19.2502 14.673ZM11.0107 10.0233L11.0106 10.0233C10.4965 10.367 10.0801 10.838 9.80208 11.3904C9.52408 11.9429 9.39393 12.5579 9.42433 13.1756C9.45472 13.7933 9.64462 14.3926 9.97552 14.9151C10.3064 15.4376 10.767 15.8655 11.3125 16.157C11.8579 16.4485 12.4696 16.5938 13.0878 16.5786C13.7061 16.5634 14.3099 16.3883 14.8404 16.0704C15.3709 15.7525 15.8099 15.3025 16.1148 14.7645C16.4197 14.2264 16.5799 13.6185 16.58 13L16.58 12.9996C16.5772 12.0511 16.1992 11.1422 15.5285 10.4715C14.8578 9.80077 13.9489 9.42275 13.0004 9.42H13C12.2918 9.4199 11.5995 9.62985 11.0107 10.0233ZM12.1334 14.2973L12.1333 14.2973C11.9092 14.1476 11.7278 13.9423 11.6066 13.7016C11.4854 13.4609 11.4287 13.1929 11.4419 12.9237C11.4551 12.6545 11.5378 12.3933 11.682 12.1656C11.8262 11.9379 12.0269 11.7515 12.2645 11.6244C12.5022 11.4974 12.7688 11.434 13.0382 11.4406C13.3076 11.4472 13.5707 11.5235 13.8019 11.662C14.0331 11.8006 14.2244 11.9966 14.3573 12.2311C14.4901 12.4656 14.56 12.7305 14.56 13L14.56 13.0009C14.5612 13.206 14.5217 13.4093 14.4438 13.599C14.3659 13.7887 14.2511 13.961 14.106 14.106C13.961 14.2511 13.7887 14.3659 13.599 14.4438C13.4093 14.5217 13.206 14.5612 13.0009 14.56H13C12.6915 14.56 12.3896 14.4687 12.1334 14.2973Z" fill="#554A48" stroke="#554A48" stroke-width="0.3"/>
</svg>
