<svg width="14" height="15" viewBox="0 0 14 15" fill="none" xmlns="http://www.w3.org/2000/svg">
<path d="M11.6667 15C11.0185 15 10.4676 14.7812 10.0139 14.3438C9.56019 13.9062 9.33333 13.375 9.33333 12.75C9.33333 12.6625 9.33982 12.5717 9.35278 12.4777C9.36574 12.3842 9.38519 12.3 9.41111 12.225L3.92778 9.15C3.70741 9.3375 3.46111 9.48425 3.18889 9.59025C2.91667 9.69675 2.63148 9.75 2.33333 9.75C1.68519 9.75 1.13426 9.53125 0.680556 9.09375C0.226852 8.65625 0 8.125 0 7.5C0 6.875 0.226852 6.34375 0.680556 5.90625C1.13426 5.46875 1.68519 5.25 2.33333 5.25C2.63148 5.25 2.91667 5.303 3.18889 5.409C3.46111 5.5155 3.70741 5.6625 3.92778 5.85L9.41111 2.775C9.38519 2.7 9.36574 2.61575 9.35278 2.52225C9.33982 2.42825 9.33333 2.3375 9.33333 2.25C9.33333 1.625 9.56019 1.09375 10.0139 0.65625C10.4676 0.21875 11.0185 0 11.6667 0C12.3148 0 12.8657 0.21875 13.3194 0.65625C13.7731 1.09375 14 1.625 14 2.25C14 2.875 13.7731 3.40625 13.3194 3.84375C12.8657 4.28125 12.3148 4.5 11.6667 4.5C11.3685 4.5 11.0833 4.44675 10.8111 4.34025C10.5389 4.23425 10.2926 4.0875 10.0722 3.9L4.58889 6.975C4.61481 7.05 4.63426 7.13425 4.64722 7.22775C4.66019 7.32175 4.66667 7.4125 4.66667 7.5C4.66667 7.5875 4.66019 7.678 4.64722 7.7715C4.63426 7.8655 4.61481 7.95 4.58889 8.025L10.0722 11.1C10.2926 10.9125 10.5389 10.7655 10.8111 10.659C11.0833 10.553 11.3685 10.5 11.6667 10.5C12.3148 10.5 12.8657 10.7188 13.3194 11.1562C13.7731 11.5938 14 12.125 14 12.75C14 13.375 13.7731 13.9062 13.3194 14.3438C12.8657 14.7812 12.3148 15 11.6667 15ZM11.6667 3C11.887 3 12.0716 2.92825 12.2204 2.78475C12.3698 2.64075 12.4444 2.4625 12.4444 2.25C12.4444 2.0375 12.3698 1.85925 12.2204 1.71525C12.0716 1.57175 11.887 1.5 11.6667 1.5C11.4463 1.5 11.2617 1.57175 11.1129 1.71525C10.9636 1.85925 10.8889 2.0375 10.8889 2.25C10.8889 2.4625 10.9636 2.64075 11.1129 2.78475C11.2617 2.92825 11.4463 3 11.6667 3ZM2.33333 8.25C2.5537 8.25 2.73856 8.178 2.88789 8.034C3.0367 7.8905 3.11111 7.7125 3.11111 7.5C3.11111 7.2875 3.0367 7.10925 2.88789 6.96525C2.73856 6.82175 2.5537 6.75 2.33333 6.75C2.11296 6.75 1.92811 6.82175 1.77878 6.96525C1.62996 7.10925 1.55556 7.2875 1.55556 7.5C1.55556 7.7125 1.62996 7.8905 1.77878 8.034C1.92811 8.178 2.11296 8.25 2.33333 8.25ZM11.6667 13.5C11.887 13.5 12.0716 13.428 12.2204 13.284C12.3698 13.1405 12.4444 12.9625 12.4444 12.75C12.4444 12.5375 12.3698 12.3595 12.2204 12.216C12.0716 12.072 11.887 12 11.6667 12C11.4463 12 11.2617 12.072 11.1129 12.216C10.9636 12.3595 10.8889 12.5375 10.8889 12.75C10.8889 12.9625 10.9636 13.1405 11.1129 13.284C11.2617 13.428 11.4463 13.5 11.6667 13.5Z" fill="#EF6D24"/>
</svg>
