<svg width="16" height="16" viewBox="0 0 16 16" fill="none" xmlns="http://www.w3.org/2000/svg">
<path d="M15.1495 5.1201L10.6253 4.72751L8.8586 0.567862C8.54079 -0.189287 7.45648 -0.189287 7.13866 0.567862L5.37198 4.73686L0.857128 5.1201C0.0345461 5.18554 -0.301965 6.21376 0.324319 6.75592L3.75486 9.72843L2.72663 14.1405C2.53968 14.9443 3.409 15.58 4.11941 15.15L7.99863 12.8131L11.8779 15.1593C12.5883 15.5893 13.4576 14.9537 13.2706 14.1498L12.2424 9.72843L15.6729 6.75592C16.2992 6.21376 15.9721 5.18554 15.1495 5.1201ZM7.99863 11.0651L4.48396 13.187L5.41872 9.18627L2.31534 6.49419L6.40955 6.13898L7.99863 2.37193L9.59706 6.14833L13.6913 6.50354L10.5879 9.19562L11.5226 13.1964L7.99863 11.0651Z" fill="#FFA800"/>
</svg>
